<svg xmlns="http://www.w3.org/2000/svg" xmlns:xlink="http://www.w3.org/1999/xlink" width="50" height="50" viewBox="0 0 50 50">
  <defs>
    <clipPath id="clip-path">
      <circle id="SVGID" cx="25" cy="25" r="25" fill="none"/>
    </clipPath>
  </defs>
  <g id="Group_13425" data-name="Group 13425" transform="translate(-110.296 -154.009)">
    <g id="Group_13424" data-name="Group 13424" transform="translate(110.296 154.009)" clip-path="url(#clip-path)">
      <circle id="Ellipse_100" data-name="Ellipse 100" cx="25" cy="25" r="25" fill="#f5884e"/>
      <g id="Group_13423" data-name="Group 13423" transform="translate(4.777 3.44)">
        <g id="Group_13422" data-name="Group 13422">
          <g id="Group_13421" data-name="Group 13421">
            <g id="Group_13420" data-name="Group 13420" transform="translate(0 1.518)">
              <g id="Group_13419" data-name="Group 13419">
                <g id="Group_13412" data-name="Group 13412" transform="translate(0.304)">
                  <g id="Group_13411" data-name="Group 13411" transform="translate(0 24.27)">
                    <path id="Path_17173" data-name="Path 17173" d="M152.575,205.283c-1.784-1.267-9.145-5.955-16.216-5.987v0h-.4v0c-7.071.032-14.387,3.651-16.781,5.87-3.6,3.334-2.683,6.229-2.683,6.229h39.326A7.067,7.067,0,0,0,152.575,205.283Z" transform="translate(-116.392 -190.785)" fill="#e1b99c"/>
                    <g id="Group_13410" data-name="Group 13410" transform="translate(14.25)">
                      <rect id="Rectangle_1989" data-name="Rectangle 1989" width="11.035" height="12.553" fill="#e1b99c"/>
                      <path id="Path_17174" data-name="Path 17174" d="M144.527,193.824a13.239,13.239,0,0,1-5.273,1.557,12.583,12.583,0,0,1-5.762-1.557v-4.2h11.035Z" transform="translate(-133.492 -189.173)" fill="#cba387"/>
                    </g>
                  </g>
                  <path id="Path_17175" data-name="Path 17175" d="M147.862,171.881c-.2-.056-.51-.089-.7-.128a15.113,15.113,0,0,0-.069-2.812c-1.23-7.444-4.424-8.982-9.351-8.982s-8.428,2.4-9.043,10.4c-.033.422-.047.869-.048,1.332a6.136,6.136,0,0,0-.628.193c-.611.173-.161,1.9.039,3.756.188,1.737.756,3.589,1.367,3.417a.224.224,0,0,0,.1-.067c.118.577.237,1.136.424,2.089a10.083,10.083,0,0,0,2.686,4.583,14.981,14.981,0,0,0,3.6,2.508,7.083,7.083,0,0,0,3.815.082,14.569,14.569,0,0,0,2.525-1.683,9.211,9.211,0,0,0,3.267-5.12c.183-.773.373-1.618.543-2.432a.189.189,0,0,0,.068.041c.611.172,1.179-1.681,1.367-3.417C148.023,173.782,148.473,172.053,147.862,171.881Z" transform="translate(-118.28 -159.959)" fill="#e1b99c"/>
                </g>
                <path id="Path_17176" data-name="Path 17176" d="M153.129,205.358a41.667,41.667,0,0,0-11.416-5.37l-5.722,3.27-5.372-3.5s-8.349,1.868-11.777,5.483c-3.466,3.653-2.754,6.4-2.754,6.4h40.374A7.21,7.21,0,0,0,153.129,205.358Z" transform="translate(-116.028 -166.592)" fill="#f1f2f2"/>
                <path id="Path_17177" data-name="Path 17177" d="M129.954,200.526l-2.861,1.109,4.046,3.9a3.9,3.9,0,0,0,6.2-1.079l.614-1.241.348.717a4.386,4.386,0,0,0,6.84,1.383l3.749-3.267-4.281-1.518-6.657,2.744Z" transform="translate(-117.872 -166.72)" fill="#e6e7e8"/>
                <path id="Path_17178" data-name="Path 17178" d="M132.63,199.568l-4.908,1.323,3,2.933a4.758,4.758,0,0,0,7.262-.729l.017-.024.152.222a4.728,4.728,0,0,0,7.01.9l3.29-2.869-4.73-1.518L138,202.721Z" transform="translate(-117.977 -166.561)" fill="#f1f2f2"/>
                <g id="Group_13418" data-name="Group 13418" transform="translate(19.199 37.951)">
                  <g id="Group_13417" data-name="Group 13417">
                    <g id="Group_13413" data-name="Group 13413" transform="translate(0 2.472)">
                      <path id="Path_17179" data-name="Path 17179" d="M140.818,209.342a.876.876,0,1,0-.876.876A.876.876,0,0,0,140.818,209.342Z" transform="translate(-139.066 -208.466)" fill="#929497"/>
                    </g>
                    <g id="Group_13416" data-name="Group 13416">
                      <g id="Group_13414" data-name="Group 13414">
                        <path id="Path_17180" data-name="Path 17180" d="M140.818,206.376a.876.876,0,1,0-.876.876A.876.876,0,0,0,140.818,206.376Z" transform="translate(-139.066 -205.5)" fill="#929497"/>
                      </g>
                      <g id="Group_13415" data-name="Group 13415" transform="translate(0 4.943)">
                        <path id="Path_17181" data-name="Path 17181" d="M140.818,212.308a.876.876,0,1,0-.876.876A.876.876,0,0,0,140.818,212.308Z" transform="translate(-139.066 -211.432)" fill="#929497"/>
                      </g>
                    </g>
                  </g>
                </g>
              </g>
            </g>
            <path id="Path_17182" data-name="Path 17182" d="M146.428,196.732a11.181,11.181,0,0,0,.048,1.792,17.547,17.547,0,0,0,.787,2.792,15.526,15.526,0,0,1,.682,4.823,3.238,3.238,0,0,1-.423,1.8,19.8,19.8,0,0,0,3.835-5.663,11.155,11.155,0,0,0,.7-1.993,12.078,12.078,0,0,0,.266-2.323,18.591,18.591,0,0,0-.607-5.772c-.7-2.454-2.058-5.192-2.577-7.692a5.936,5.936,0,0,1-.452,1.511q-.25.545-.53,1.074c-.373.706-1.664,2.658-1.664,2.658a7.534,7.534,0,0,1,.082,1.355q-.035,1.336-.072,2.671Z" transform="translate(-121.092 -162.529)" fill="#161616"/>
            <path id="Path_17183" data-name="Path 17183" d="M139.75,159.959c4.927,0,8.121,1.538,9.351,8.982a15.113,15.113,0,0,1,.069,2.813c.188.038.5.072.7.128.611.173.161,1.9-.039,3.756-.187,1.737-.756,3.589-1.367,3.417a.189.189,0,0,1-.068-.041c-.169.814-.36,1.659-.542,2.432a9.211,9.211,0,0,1-3.268,5.12,14.569,14.569,0,0,1-2.525,1.683,5.192,5.192,0,0,1-1.872.222Z" transform="translate(-119.981 -158.441)" fill="#deb699"/>
            <path id="Path_17184" data-name="Path 17184" d="M129.551,178.484c-3.443-3.962-2.912-10.051-1.354-13.9,1.956-4.836,4.7-5.792,6.75-6.2a10.254,10.254,0,0,1,5.82.355,3.077,3.077,0,0,1,1.664,1.638c2.568-.929,4.348,2.625,4.758,4.783a11.943,11.943,0,0,1-.109,5.957.763.763,0,0,0-.847.409c-.574.929-.584,3.071-.9,4.018-4.072-7.925-2.869-10.384-2.869-10.384a7.683,7.683,0,0,1-1.092,2.378C137.242,171.63,129.551,167.553,129.551,178.484Z" transform="translate(-117.854 -158.137)" fill="#161616"/>
          </g>
        </g>
      </g>
    </g>
  </g>
</svg>
