<svg id="Gruppe_13547" data-name="Gruppe 13547" xmlns="http://www.w3.org/2000/svg" xmlns:xlink="http://www.w3.org/1999/xlink" width="50" height="50" viewBox="0 0 50 50">
  <defs>
    <clipPath id="clip-path">
      <circle id="Ellipse_111" data-name="Ellipse 111" cx="25" cy="25" r="25" fill="none"/>
    </clipPath>
  </defs>
  <g id="Gruppe_13546" data-name="Gruppe 13546" clip-path="url(#clip-path)">
    <path id="Pfad_17323" data-name="Pfad 17323" d="M50,25A25,25,0,1,1,25,0,25,25,0,0,1,50,25" fill="#f5663b"/>
    <rect id="Rechteck_2041" data-name="Rechteck 2041" width="11.035" height="12.553" transform="translate(19.33 31.739)" fill="#e1b99c"/>
    <path id="Pfad_17324" data-name="Pfad 17324" d="M76.047,40.68c-.2-.056-.51-.089-.7-.127a15.153,15.153,0,0,0-.069-2.812c-1.23-7.444-4.425-8.982-9.351-8.982s-8.428,2.4-9.043,10.4c-.033.422-.048.869-.048,1.333a6.188,6.188,0,0,0-.627.192c-.611.173-.161,1.9.039,3.756.187,1.737.755,3.589,1.367,3.417a.224.224,0,0,0,.1-.066,8.068,8.068,0,0,0,.782,2.373,19.136,19.136,0,0,0,2.74,3.888,15.57,15.57,0,0,0,3.189,2.919,7.087,7.087,0,0,0,3.815.081c.714-.329.717-1.463,1.59-2.151a12.65,12.65,0,0,0,3.763-4.25,12.047,12.047,0,0,0,.981-2.834.2.2,0,0,0,.068.041c.611.172,1.18-1.681,1.367-3.417.2-1.854.65-3.584.039-3.756" transform="translate(-41.385 -21.29)" fill="#e1b99c"/>
    <path id="Pfad_17325" data-name="Pfad 17325" d="M55.5,152.4a41.669,41.669,0,0,0-11.415-5.37,8.386,8.386,0,0,1-5.814,2.6,6.5,6.5,0,0,1-5.279-2.829s-8.349,1.868-11.778,5.483c-3.465,3.653-2.754,6.395-2.754,6.395H58.829A7.21,7.21,0,0,0,55.5,152.4" transform="translate(-13.618 -108.676)" fill="#f1f2f2"/>
    <path id="Pfad_17326" data-name="Pfad 17326" d="M78.089,36.418c0,5.25-4.359,15.81-9.61,15.81s-9.4-10.56-9.4-15.81a9.51,9.51,0,0,1,7.215-9.228,4.208,4.208,0,0,1,2.291.126,5.486,5.486,0,0,1,2.826.022,9.511,9.511,0,0,1,6.68,9.079" transform="translate(-43.735 -20.053)" fill="#161616"/>
    <path id="Pfad_17327" data-name="Pfad 17327" d="M87.5,110.254a10.512,10.512,0,0,1,.175,1.728,16.626,16.626,0,0,1-.434,2.783,14.608,14.608,0,0,0-.079,4.722,3.062,3.062,0,0,0,.641,1.671,19.165,19.165,0,0,1-4.5-4.951,10.525,10.525,0,0,1-.946-1.825,11.328,11.328,0,0,1-.552-2.2,17.471,17.471,0,0,1-.113-5.624c.393-2.448,1.4-5.251,1.6-7.72a5.658,5.658,0,0,0,.636,1.394q.316.491.659.964c.458.631,1.98,2.342,1.98,2.342a7.082,7.082,0,0,0,.087,1.312q.2,1.279.4,2.557l.447,2.846" transform="translate(-60.343 -73.172)" fill="#161616"/>
  </g>
</svg>
