<svg xmlns="http://www.w3.org/2000/svg" xmlns:xlink="http://www.w3.org/1999/xlink" width="50" height="50" viewBox="0 0 50 50">
  <defs>
    <clipPath id="clip-path">
      <circle id="Ellipse_110" data-name="Ellipse 110" cx="24.928" cy="24.928" r="24.928" transform="matrix(0.003, -1, 1, 0.003, 0, 49.856)" fill="none"/>
    </clipPath>
  </defs>
  <g id="Gruppe_13545" data-name="Gruppe 13545" transform="translate(-4.04 0.275)">
    <g id="Gruppe_13544" data-name="Gruppe 13544" transform="translate(4.04 -0.275)" clip-path="url(#clip-path)">
      <path id="Pfad_17318" data-name="Pfad 17318" d="M54.171,24.928A24.928,24.928,0,1,1,29.243,0,24.928,24.928,0,0,1,54.171,24.928" transform="translate(-4.243 0.072)" fill="#f5663b"/>
      <path id="Pfad_17319" data-name="Pfad 17319" d="M43.364,70.626H8.743a8.743,8.743,0,1,1,0-17.485S11.784,48.462,20,48.794c3.719.15,2.685,2.2,5.246,2.153,2.752-.05,4.743-2.027,7.129-2.17,5.892-.354,10.985,4.364,10.985,4.364a8.743,8.743,0,0,1,0,17.485" transform="translate(-1.053 -35.975)" fill="#f1f2f2"/>
      <path id="Pfad_17320" data-name="Pfad 17320" d="M80.161,56.2c0,7.148-3.7,12.942-10.062,12.942S59.553,63.348,59.553,56.2A11.486,11.486,0,0,1,65.7,45.742c1.615-.9,2.2-1.932,4.16-1.932,1.589,0,2.71,1.186,4.088,1.789,4.132,1.81,6.216,5.241,6.216,10.6" transform="translate(-45.081 -32.317)" fill="#e1b99c"/>
      <path id="Pfad_17321" data-name="Pfad 17321" d="M78.584,66.847c0,6.165-5,12.908-11.163,12.908S56.257,73.012,56.257,66.847A11.168,11.168,0,0,1,64.729,56.01a4.945,4.945,0,0,1,2.691.149,6.44,6.44,0,0,1,3.318.026,11.168,11.168,0,0,1,7.845,10.662" transform="translate(-42.644 -41.247)" fill="#161616"/>
      <path id="Pfad_17322" data-name="Pfad 17322" d="M96.737,58.152s-.64,4.53-.689,6.4a55.942,55.942,0,0,0,.563,6.769c.08-1.825.826-4.618.8-6.836-.021-1.539-.67-6.337-.67-6.337" transform="translate(-72.059 -42.92)" fill="#e1b99c"/>
    </g>
  </g>
</svg>
